PathFileType	4	(X/Y/Z)	c:/Users/goper/Files/vsCode/490R/osim_files/A05/A05_Static01.trc
DataRate	CameraRate	NumFrames	NumMarkers	Units                	OrigDataRate	OrigDataStartFrame	OrigNumFrames
250.00	250.00	11	36	mm	250.0	1314	3502
                Frame#	Time	LPSIS			LASIS			LTH1			LTH2			LTH3			LTH4			LLFE			LMFE			LSH1			LSH2			LSH3			LSH4			LLMAL			LMMAL			LCAL			LMTP5			LTOE			LMTP1			RPSIS			RASIS			RTH1			RTH2			RTH3			RTH4			RLFE			RMFE			RSH1			RSH2			RSH3			RSH4			RLMAL			RMMAL			RCAL			RMTP1			RTOE			RMTP5		
		X1	Y1	Z1	X2	Y2	Z2	X3	Y3	Z3	X4	Y4	Z4	X5	Y5	Z5	X6	Y6	Z6	X7	Y7	Z7	X8	Y8	Z8	X9	Y9	Z9	X10	Y10	Z10	X11	Y11	Z11	X12	Y12	Z12	X13	Y13	Z13	X14	Y14	Z14	X15	Y15	Z15	X16	Y16	Z16	X17	Y17	Z17	X18	Y18	Z18	X19	Y19	Z19	X20	Y20	Z20	X21	Y21	Z21	X22	Y22	Z22	X23	Y23	Z23	X24	Y24	Z24	X25	Y25	Z25	X26	Y26	Z26	X27	Y27	Z27	X28	Y28	Z28	X29	Y29	Z29	X30	Y30	Z30	X31	Y31	Z31	X32	Y32	Z32	X33	Y33	Z33	X34	Y34	Z34	X35	Y35	Z35	X36	Y36	Z36

1314	5.25200	0.00000	0.00000	0.00000	351.55621	966.80835	265.50909	0.00000	0.00000	0.00000	234.67511	649.84998	238.12552	279.98822	701.75873	217.77087	284.31665	658.47791	220.49266	297.88000	480.54120	241.84129	304.18420	475.99091	340.37961	257.86508	387.43893	233.27861	251.70335	341.55048	231.31842	316.23895	376.01715	241.91914	303.94055	332.46381	236.87643	255.77577	116.98896	232.96292	261.52927	119.42857	322.70377	174.39467	66.36308	290.15778	380.60153	49.46590	200.20270	435.02963	70.72841	259.03159	395.86511	63.59618	308.83496	181.59308	998.36475	481.55695	369.73605	976.03333	579.91919	329.47446	627.32129	619.93170	340.90033	587.79071	610.80420	388.98685	641.40112	602.58392	391.15341	594.56512	593.53119	314.59119	516.25989	598.63312	343.30661	501.29437	461.87225	224.12354	270.24750	578.16907	215.89569	226.36807	568.31097	283.87527	253.28049	578.83630	263.66681	208.53737	571.18903	200.08447	112.54490	543.73077	252.53262	135.11487	461.02002	152.33319	70.31026	453.68875	363.95023	58.12891	490.94263	385.01315	65.01955	549.93823	307.63187	42.31745	598.00208
1315	5.25600	0.00000	0.00000	0.00000	351.57761	966.78638	265.52463	0.00000	0.00000	0.00000	234.73532	649.83069	238.08569	280.05270	701.72760	217.72807	284.34079	658.44495	220.49397	297.93750	480.52988	241.79852	304.29639	476.01984	340.41754	257.93289	387.41983	233.23941	251.15276	340.83145	231.73975	316.26395	375.99622	241.91316	303.97159	332.44928	236.86057	255.78572	116.94334	232.95064	261.50369	119.39429	322.70316	174.42476	66.35053	290.16614	380.59158	49.42276	200.19576	435.03192	70.71062	259.02533	395.85141	63.55988	308.83365	181.61313	998.33478	481.57687	369.74173	975.99695	579.90833	329.48486	627.28284	619.92371	340.94742	587.76331	610.79614	389.00143	641.36456	602.55835	391.16727	594.52441	593.54260	314.63428	516.22772	598.63873	343.30267	501.24503	461.85931	224.10986	270.17667	578.10278	215.90179	226.33139	568.27679	283.90164	253.25630	578.82971	263.68008	208.52753	571.19586	200.10046	112.52348	543.70331	252.54247	135.07906	461.02115	152.86513	70.82324	453.09698	363.92331	58.07823	490.95013	384.97580	64.96175	549.94556	307.65067	42.28896	598.03345
1316	5.26000	0.00000	0.00000	0.00000	351.60739	966.75134	265.50116	0.00000	0.00000	0.00000	234.74826	649.85687	238.06894	280.08795	701.72864	217.72202	284.35309	658.41980	220.48860	297.93063	480.48996	241.79735	304.30893	475.97961	340.41342	257.88788	387.37888	233.27562	251.16565	340.79916	231.76172	316.29715	375.98288	241.91553	303.97360	332.41312	236.85773	255.81326	116.93810	232.92754	261.49106	119.35397	322.70535	174.40163	66.37617	290.19858	380.59711	49.41084	200.18063	435.03113	70.66323	259.04556	395.86230	63.55138	308.85440	181.68748	998.26245	481.53830	369.76721	975.97095	579.88568	329.45944	627.22778	619.88904	340.93829	587.72894	610.78052	388.99454	641.33533	602.54810	391.20654	594.49506	593.54443	314.64441	516.19623	598.63788	343.66879	501.56668	461.87451	224.08023	270.12161	578.06866	215.80992	226.24374	568.20978	283.90314	253.20692	578.81696	263.64722	208.47937	571.18469	200.07991	112.48074	543.67114	252.47427	134.97334	461.01999	152.87067	70.86826	453.08838	363.93021	58.06444	490.94901	384.97931	64.94250	549.93372	308.17621	42.48050	597.91089
1317	5.26400	0.00000	0.00000	0.00000	351.62012	966.77728	265.47452	0.00000	0.00000	0.00000	234.74782	649.86346	238.07668	280.07144	701.75275	217.71457	284.38425	658.42975	220.47699	297.94302	480.50470	241.78310	303.17297	475.01877	341.01346	257.86716	387.38953	233.29106	251.15268	340.77399	231.77077	316.29044	376.01697	241.92104	303.95761	332.40378	236.87688	255.79984	116.95337	232.94341	261.48972	119.33559	322.73859	174.96698	66.64373	289.27670	380.59799	49.41496	200.20705	435.00525	70.66246	259.05408	395.83514	63.51797	308.85904	181.79515	998.23151	481.49356	369.79865	975.94940	579.88971	329.48495	627.19592	619.85388	340.99774	587.72760	610.78735	389.02933	641.31665	602.54877	391.20325	594.46307	593.52612	314.68796	516.19757	598.64233	343.35999	501.20575	461.85281	224.08896	270.07678	578.04132	215.84572	226.23654	568.24866	283.93298	253.21220	578.83490	263.71207	208.47815	571.17517	200.08107	112.47277	543.67407	252.52399	135.01653	461.02994	152.24045	70.24236	453.75552	363.93570	58.04121	490.94443	385.01602	64.96425	549.94617	308.07455	42.49652	597.88293
1318	5.26800	0.00000	0.00000	0.00000	351.67419	966.80615	265.47025	0.00000	0.00000	0.00000	234.77184	649.89740	238.04601	280.12558	701.79626	217.64926	284.36069	658.41589	220.50034	297.95386	480.50027	241.79434	303.17197	474.99451	341.00772	257.92139	387.43216	233.27084	251.11768	340.75522	231.77278	316.29822	376.06369	241.93643	303.96274	332.41141	236.86324	255.79118	116.94316	232.95789	261.48651	119.35558	322.72311	174.45404	66.62428	290.05518	380.58957	49.40010	200.20140	435.03860	70.69447	259.08301	395.83865	63.52952	308.87164	181.80086	998.22339	481.45056	369.80627	975.93420	579.87347	329.54843	627.21155	619.84888	341.07074	587.71539	610.79138	389.04791	641.31024	602.54504	391.24896	594.47137	593.51910	314.74335	516.17944	598.63611	343.70172	501.56772	461.88269	224.10844	270.04166	578.02155	215.90579	226.25836	568.25299	283.97821	253.24673	578.80988	263.72702	208.47130	571.15179	200.09888	112.46568	543.65466	252.49963	135.00572	461.01852	152.22990	70.22864	453.72125	363.95456	58.03343	490.97531	385.00446	64.95863	549.94989	307.60373	42.20840	597.98816
1319	5.27200	0.00000	0.00000	0.00000	351.70026	966.81152	265.46722	0.00000	0.00000	0.00000	234.76471	649.96014	238.05736	280.10864	701.80725	217.66280	284.36893	658.45544	220.49382	297.91431	480.51917	241.80089	303.94058	474.99506	341.36588	257.85898	387.43066	233.30580	251.08766	340.76578	231.79980	316.26746	376.07938	241.92480	303.95978	332.44467	236.87019	255.76830	116.97773	232.96898	261.45850	119.31344	322.74329	174.44087	66.80878	290.03748	380.57950	49.45148	200.21135	435.05579	70.70888	259.09674	395.86096	63.56018	308.89746	181.81197	998.22375	481.42343	369.88638	975.98041	579.86908	329.92300	627.57233	619.43311	341.08353	587.70563	610.77356	389.08963	641.32465	602.52917	391.26627	594.47400	593.52472	314.82959	516.21814	598.65900	343.76425	501.62125	461.87985	224.18762	270.04950	578.08240	215.97438	226.28242	568.30444	283.97696	253.24258	578.79578	263.79459	208.49397	571.17548	200.12297	112.43004	543.65051	252.48495	135.02576	461.00183	152.19991	70.31834	453.71008	363.92441	58.05294	490.98950	385.00565	65.00539	549.95740	307.59750	42.23116	598.00842
1320	5.27600	0.00000	0.00000	0.00000	351.72736	966.86340	265.43750	0.00000	0.00000	0.00000	234.77020	649.97803	238.05338	280.13660	701.88416	217.63377	284.36658	658.48346	220.48413	297.95251	480.54184	241.79271	304.61166	475.65475	340.83752	257.88419	387.47043	233.29193	251.09547	340.79883	231.77843	316.28134	376.15106	241.94753	303.95798	332.47238	236.86893	255.77084	116.98168	232.95929	261.45700	119.34207	322.75333	0.00000	0.00000	0.00000	380.59903	49.47631	200.20432	435.02429	70.71937	259.11942	395.83209	63.55397	308.90878	181.78925	998.27722	481.40472	369.87689	975.97552	579.83276	329.92551	627.56268	619.41693	341.11716	587.70923	610.75281	389.07852	641.33252	602.53149	391.26691	594.48846	593.51202	314.87106	516.23370	598.65338	343.78214	501.65622	461.85980	224.19685	270.05109	578.07245	215.98798	226.27499	568.31464	284.03629	253.28618	578.78284	263.76517	208.46898	571.13831	200.14407	112.46746	543.66095	252.48924	135.05530	460.97363	152.95761	71.15923	452.94879	363.94281	58.08938	490.97882	385.00818	65.02006	549.95422	307.52817	42.19091	597.96417
1321	5.28000	0.00000	0.00000	0.00000	351.73593	966.86279	265.43018	0.00000	0.00000	0.00000	234.80592	650.05975	238.01003	280.10153	701.90057	217.66435	284.39017	658.50769	220.47189	297.91049	480.57727	241.80791	304.64499	475.69907	340.82697	257.88000	387.52505	233.30524	251.07578	340.80399	231.81586	316.29303	376.17456	241.91602	303.96292	332.50638	236.87996	255.75510	117.03377	232.97678	261.41177	119.34554	322.75589	0.00000	0.00000	0.00000	380.59607	49.53056	200.20164	434.97205	70.68648	259.13693	395.81656	63.56469	308.90927	181.78593	998.30841	481.39627	369.88388	975.99493	579.84119	329.87897	627.54950	619.37921	341.14145	587.70905	610.75513	389.07892	641.34009	602.52777	391.25229	594.49243	593.51276	314.82831	516.19885	598.61694	343.80115	501.67523	461.85477	224.21405	270.07956	578.11890	215.89067	226.21321	568.24347	283.99380	253.28914	578.78223	263.74518	208.46553	571.12830	200.08530	112.50857	543.63708	252.52908	135.11171	460.98657	152.11821	70.38903	453.75467	363.93851	58.10637	491.00259	385.00739	65.03956	549.97302	307.51895	42.21140	597.93988
1322	5.28400	0.00000	0.00000	0.00000	351.74695	966.88367	265.42139	0.00000	0.00000	0.00000	234.77850	650.05957	238.05319	280.08105	701.90033	217.69580	284.41443	658.51886	220.47821	297.95383	480.60776	241.80807	304.62155	475.67877	340.81357	257.90564	387.54791	233.28029	251.07863	340.82095	231.80812	316.28445	376.19983	241.91895	303.99930	332.52710	236.87218	255.76598	117.05404	232.97305	261.40915	119.35395	322.76395	0.00000	0.00000	0.00000	380.59799	49.54226	200.20914	434.97052	70.73051	259.14035	395.79980	63.57356	308.90839	181.79709	998.29980	481.36874	369.88901	975.98486	579.82397	329.92142	627.57733	619.37158	341.13333	587.69861	610.72900	389.07123	641.32178	602.49872	391.27609	594.50122	593.48419	314.83609	516.20343	598.58044	343.87167	501.70505	461.83072	224.25226	270.13583	578.10657	215.86356	226.20221	568.20947	284.02451	253.30313	578.77167	263.72272	208.43988	571.09167	200.07449	112.57050	543.63867	252.53979	135.13437	460.98041	152.09221	70.38602	453.75232	363.93405	58.10487	491.01648	384.98569	65.05323	549.95929	307.50177	42.19577	597.93506
1323	5.28800	0.00000	0.00000	0.00000	351.77930	966.89050	265.40121	0.00000	0.00000	0.00000	234.81963	650.08386	238.01091	280.09964	701.93921	217.70134	284.44742	658.55115	220.46771	297.93887	480.59213	241.79315	304.65222	475.69073	340.83286	257.97125	387.56686	233.24561	251.07352	340.82150	231.80293	316.28867	376.19897	241.93770	303.99957	332.52771	236.86980	255.78807	117.07693	232.97601	261.40930	119.36029	322.74536	0.00000	0.00000	0.00000	380.61014	49.53943	200.21924	434.97800	70.74296	259.11618	395.79889	63.58631	308.90561	181.81744	998.31567	481.43118	369.88751	975.98389	579.79028	329.99991	627.62256	619.37378	341.17941	587.72803	610.71332	389.12186	641.36804	602.48676	391.32083	594.53387	593.47443	314.89667	516.22046	598.56866	343.90948	501.69443	461.81671	224.28639	270.20718	578.13831	215.90433	226.25899	568.19220	284.03513	253.31918	578.75781	263.78125	208.46820	571.09338	200.12003	112.63572	543.66376	252.54161	135.14771	460.99765	152.11220	70.39609	453.73965	363.94110	58.11357	490.99997	384.99481	65.04919	549.95325	308.01981	42.46779	597.82996
1324	5.29200	0.00000	0.00000	0.00000	351.82318	966.87170	265.36862	0.00000	0.00000	0.00000	234.79643	650.05542	238.04819	280.14542	701.92957	217.69673	284.45932	658.56140	220.47304	297.97485	480.60556	241.78470	304.65314	475.64175	340.82294	257.93243	387.54904	233.25980	251.09593	340.83270	231.80424	316.31760	376.16974	241.94307	304.01538	332.51260	236.87875	255.80385	117.06355	232.95044	261.46133	119.38436	322.73074	174.48726	66.88506	289.92780	380.62115	49.52213	200.21289	435.02844	70.76355	259.07803	395.83466	63.60410	308.89551	181.82047	998.33398	481.47751	370.00015	976.03546	579.76123	329.67197	627.21808	619.74847	341.24570	587.75122	610.68964	389.18777	641.36926	602.45380	391.36185	594.54510	593.46588	314.96844	516.23474	598.56177	343.61441	501.32886	461.80563	224.35948	270.26566	578.14874	215.97632	226.31664	568.18811	284.10550	253.32510	578.73773	263.85373	208.49863	571.08588	200.18742	112.66251	543.70087	252.59448	135.14928	461.01419	152.84679	70.53661	453.21432	363.97604	58.11789	490.97662	385.03848	65.03405	549.92841	308.04007	42.46091	597.83478
